<svg xmlns="http://www.w3.org/2000/svg" version="1.0" width="128.000000pt" height="128.000000pt" viewBox="-3 -3 134 134" preserveAspectRatio="xMidYMid meet"><g id="deeditor_bgCarrier" stroke-width="0">
  <rect id="dee_c_e" x="-3" y="-3" width="134" height="134" rx="38.4" fill="#ffffff" strokewidth="0"/>
</g>

<g transform="translate(0.000000,128.000000) scale(0.100000,-0.100000)" fill="#000000" stroke="none">
<path d="M550 1261 c-54 -11 -89 -34 -161 -104 -37 -36 -82 -70 -103 -77 -43 -14 -46 -26 -9 -34 36 -8 80 5 147 43 29 17 56 31 59 31 5 0 -12 -45 -59 -158 l-14 -34 -34 21 c-78 48 -118 11 -118 -110 0 -37 3 -77 7 -88 5 -16 -1 -24 -32 -39 -21 -11 -55 -25 -75 -31 -72 -24 -37 -45 56 -35 l60 7 -18 -29 c-11 -16 -37 -50 -58 -76 l-40 -48 30 -37 c16 -21 39 -47 51 -57 18 -16 21 -30 21 -97 0 -93 -13 -80 214 -215 107 -64 157 -88 180 -87 33 1 336 178 369 215 13 15 17 38 17 93 0 60 3 75 21 91 12 10 35 36 51 57 l31 38 -29 32 c-16 18 -40 45 -54 60 l-24 28 56 -7 c100 -12 103 3 10 47 -68 33 -82 44 -76 57 4 9 9 56 12 103 7 148 -32 182 -132 118 -27 -16 -49 -29 -50 -27 -1 2 -15 32 -30 68 -41 94 -93 186 -129 227 -28 32 -83 65 -104 62 -4 -1 -24 -4 -43 -8z m-171 -365 c17 -20 6 -55 -11 -38 -25 25 -37 12 -40 -40 -4 -66 -24 -75 -33 -14 -7 42 0 109 11 128 6 10 56 -15 73 -36z m621 8 c8 -23 10 -60 6 -96 -7 -69 -11 -79 -31 -71 -12 4 -14 18 -9 69 6 54 4 64 -9 64 -9 0 -26 -14 -38 -31 l-22 -32 -9 24 c-8 21 -3 30 36 66 25 24 49 43 55 43 5 0 15 -16 21 -36z m-410 -270 c6 -14 10 -46 10 -71 l0 -46 -23 34 c-12 18 -34 40 -48 48 -23 13 -30 12 -70 -7 -24 -12 -75 -49 -113 -84 l-69 -62 32 -28 c17 -15 28 -28 25 -28 -13 0 -112 81 -118 95 -3 8 16 33 47 61 113 101 133 110 260 113 53 1 58 -1 67 -25z m349 -7 c46 -31 151 -126 151 -138 0 -11 -111 -99 -125 -99 -5 0 5 12 23 26 l33 27 -33 34 c-52 54 -133 113 -168 123 -42 12 -83 -8 -100 -50 -19 -46 -26 -36 -20 28 8 85 9 86 113 79 71 -5 97 -11 126 -30z m-412 -73 c1 -5 -2 -16 -7 -24 -12 -20 -35 2 -26 25 6 17 27 16 33 -1z m280 0 c8 -21 -13 -42 -28 -27 -13 13 -5 43 11 43 6 0 13 -7 17 -16z m-201 -90 c4 -14 1 -36 -6 -48 -16 -31 -10 -59 18 -71 29 -13 28 -21 -5 -39 l-28 -14 37 -7 c20 -4 50 -3 65 3 l28 10 -27 11 c-34 13 -35 23 -6 36 28 12 34 40 18 71 -15 26 -6 74 14 74 22 0 96 -87 96 -114 0 -16 -14 -35 -42 -58 -92 -75 -129 -77 -217 -13 -76 56 -78 76 -20 140 47 51 66 56 75 19z m74 -74 c0 -5 -13 -10 -30 -10 -16 0 -30 5 -30 10 0 6 14 10 30 10 17 0 30 -4 30 -10z" fill="#000000"/>
</g>
</svg>